<svg xmlns="http://www.w3.org/2000/svg" width="24" height="24" viewBox="0 0 24 24" fill="currentColor"><path d="M12 2C6.48 2 2 5.81 2 10.5c0 4.08 3.42 7.5 8.05 8.32.31.07.74.21.85.48.1.24.06.63.03.87l-.14.85c-.04.25-.2.98.86.53s5.72-3.37 7.8-5.77C21.36 13.66 22 12.13 22 10.5 22 5.81 17.52 2 12 2zm-3.19 11.3H6.73a.55.55 0 0 1-.55-.55V8.84c0-.3.25-.55.55-.55s.55.25.55.55v3.36h1.53c.3 0 .55.25.55.55s-.25.55-.55.55zm1.76-.55a.55.55 0 0 1-1.1 0V8.84a.55.55 0 0 1 1.1 0v3.91zm4.27 0a.55.55 0 0 1-.42.53.54.54 0 0 1-.61-.22l-2.12-2.87v2.56a.55.55 0 0 1-1.1 0V8.84c0-.24.16-.45.39-.52a.54.54 0 0 1 .64.22l2.12 2.87V8.84a.55.55 0 0 1 1.1 0v3.91zm2.88-2.28a.55.55 0 0 1 0 1.1h-1.53v.63h1.53a.55.55 0 0 1 0 1.1h-2.08a.55.55 0 0 1-.55-.55V8.84c0-.3.25-.55.55-.55h2.08a.55.55 0 0 1 0 1.1h-1.53v.53h1.53z"/></svg>
